<svg width="766" height="218" viewBox="0 0 766 218" fill="none" xmlns="http://www.w3.org/2000/svg">
<g id="team">
<g id="osoba2">
<g id="head2">
<path id="Vector" d="M381.924 115.012C402.353 115.012 418.914 98.4503 418.914 78.0209C418.914 57.5914 402.353 41.0301 381.924 41.0301C361.494 41.0301 344.933 57.5914 344.933 78.0209C344.933 98.4503 361.494 115.012 381.924 115.012Z" fill="#FFB8B8"/>
<path id="bf427902-b9bf-4946-b5d7-5c1c7e04535e" d="M414.493 53.5841C414.493 53.5841 424.124 35.1723 402.935 33.4985C402.935 33.4985 384.871 17.1125 366.46 30.5029C366.46 30.5029 356.417 30.5029 350.925 41.8675C350.925 41.8675 343.027 38.8719 341.291 46.8889C341.291 46.8889 335.511 63.6269 341.291 78.6911C347.07 93.7553 348.99 95.4291 348.99 95.4291C348.99 95.4291 344.935 76.7353 368.052 75.0614C391.169 73.3876 412.377 58.9059 414.303 77.3176C416.23 95.7293 418.347 87.412 418.347 87.412C418.347 87.412 436.645 61.1162 414.493 53.5841Z" fill="#2F2E41"/>
</g>
<path id="body2" d="M461.985 178.871C442.332 201.233 414.673 214.97 384.98 217.116C355.286 219.262 325.939 209.645 303.275 190.341L313.005 163.191C315.204 158.368 318.674 154.236 323.043 151.235C327.412 148.235 332.515 146.481 337.805 146.161L343.995 145.781L358.755 133.051C358.755 133.051 398.525 131.631 397.935 130.951L422.025 145.441L422.005 145.341L431.475 145.921C436.766 146.24 441.869 147.993 446.238 150.994C450.608 153.994 454.077 158.128 456.275 162.951L461.985 178.871Z" fill="#6C63FF"/>
</g>
<g id="osoba3">
<path id="body3" d="M765.545 178.34C745.892 200.702 718.233 214.439 688.54 216.585C658.846 218.731 629.499 209.114 606.835 189.81L616.565 162.66C618.764 157.838 622.234 153.705 626.603 150.705C630.972 147.705 636.075 145.95 641.365 145.63L647.555 145.25L662.315 132.52C662.315 132.52 702.085 131.1 701.495 130.42L725.585 144.91L725.565 144.81L735.035 145.39C740.326 145.709 745.429 147.463 749.798 150.463C754.168 153.463 757.637 157.597 759.835 162.42L765.545 178.34Z" fill="#6C63FF"/>
<g id="head3">
<path id="Vector_2" d="M677.309 116.493C697.308 116.493 713.52 100.28 713.52 80.2815C713.52 60.2826 697.308 44.0703 677.309 44.0703C657.31 44.0703 641.098 60.2826 641.098 80.2815C641.098 100.28 657.31 116.493 677.309 116.493Z" fill="#FFB6B6"/>
<path id="Vector_3" d="M715.5 57.824C712.44 46.8717 705.488 37.4127 695.948 31.2227C688.346 26.3602 678.859 23.8777 670.247 26.4492C661.634 29.0207 654.503 37.473 655.067 46.6053C651.958 45.5474 648.424 46.9549 646.148 49.3596C643.872 51.7644 642.649 54.9992 641.772 58.2192C639.008 68.4582 639.192 79.2695 642.301 89.409L642.129 90.8643C646.331 90.1692 649.519 86.5639 651.501 82.7227C653.482 78.8815 654.623 74.6201 656.771 70.8728C658.919 67.1256 662.486 63.7829 666.741 63.666L666.366 70.1705C670.028 68.2843 673.689 66.3981 677.35 64.5118C676.479 66.595 675.608 68.6781 674.737 70.7612C677.934 69.4249 681.132 68.0885 684.329 66.7522C683.972 68.7553 683.614 70.7585 683.257 72.7615C686.428 65.5442 696.234 62.3737 702.905 66.4089C706.779 68.7524 709.32 72.929 710.657 77.315C711.994 81.7011 712.259 86.3408 712.514 90.9265C717.454 80.6095 718.514 68.8585 715.5 57.824V57.824Z" fill="#2F2E41"/>
</g>
</g>
<g id="osoba1">
<path id="body1" d="M159.235 177.979C139.582 200.342 111.923 214.078 82.2293 216.224C52.5357 218.37 23.1891 208.753 0.524811 189.449L10.2548 162.299C12.4536 157.477 15.9236 153.344 20.2925 150.344C24.6615 147.344 29.7646 145.59 35.0548 145.269L41.2448 144.889L56.0048 132.159C56.0048 132.159 95.7748 130.739 95.1848 130.059L119.275 144.549L119.255 144.449L128.725 145.029C134.015 145.348 139.119 147.102 143.488 150.103C147.857 153.103 151.327 157.236 153.525 162.059L159.235 177.979Z" fill="#6C63FF"/>
<g id="head1">
<path id="Vector_4" d="M75.4535 108.169C100.437 108.169 120.69 87.9165 120.69 62.9332C120.69 37.9499 100.437 17.697 75.4535 17.697C50.4703 17.697 30.2173 37.9499 30.2173 62.9332C30.2173 87.9165 50.4703 108.169 75.4535 108.169Z" fill="#2F2E41"/>
<path id="Vector_5" d="M75.4719 114.112C97.7906 114.112 115.883 96.0191 115.883 73.7005C115.883 51.3818 97.7906 33.289 75.4719 33.289C53.1533 33.289 35.0605 51.3818 35.0605 73.7005C35.0605 96.0191 53.1533 114.112 75.4719 114.112Z" fill="#FFB8B8"/>
<path id="Vector_6" d="M119.055 46.8311C119.338 43.814 119.468 40.7844 119.444 37.754C119.609 31.7608 118.511 25.8 116.221 20.259C113.405 14.1239 108.383 9.27294 102.155 6.67003C95.9811 4.17992 89.0815 4.18593 82.9122 6.68685C77.3422 3.16775 71.1534 0.377956 64.6359 0.0323657C58.1182 -0.313154 51.2272 2.10484 47.2107 7.42748C46.3138 8.83248 45.2951 10.1559 44.1664 11.3825C40.9379 14.3723 36.0313 13.9411 31.74 13.3297C33.6647 14.9794 35.59 16.629 37.5157 18.2786C35.1858 18.8873 32.8557 19.496 30.5254 20.1047C33.2446 21.7537 35.9634 23.4028 38.6821 25.0519C30.7887 29.7897 27.2011 40.1304 28.1488 49.522C29.0453 58.4136 33.3381 66.5444 38.4698 73.7713C40.5168 69.4514 40.0758 64.2823 40.042 59.4169C40.0232 57.8387 40.1195 56.2613 40.3301 54.6972C57.6727 58.8544 75.7936 61.5224 94.1704 54.9198L97.8583 45.894C98.3758 45.9472 98.8936 45.9972 99.4109 46.0522L101.547 54.9282C106.391 56.9081 111.246 58.6385 116.102 56.8202C116.338 58.1912 116.48 59.5903 116.589 60.9351C117.006 59.3266 117.368 57.7061 117.694 56.0791C118.336 55.7348 118.95 55.3422 119.532 54.9046C119.65 52.2042 119.49 49.4989 119.055 46.8311V46.8311Z" fill="#2F2E41"/>
</g>
</g>
</g>
</svg>
