<svg width="40" height="50" viewBox="0 0 40 50" fill="none" xmlns="http://www.w3.org/2000/svg">
<g id="osoba3">
<path id="body3" d="M40 39.9352C35.0468 45.7751 28.0759 49.3625 20.5922 49.9229C13.1084 50.4833 5.71214 47.9718 0 42.9306L2.45227 35.8404C3.00644 34.5811 3.88098 33.5018 4.98209 32.7184C6.08321 31.9349 7.36938 31.4767 8.70267 31.393L10.2628 31.2938L13.9827 27.9694C13.9827 27.9694 24.0061 27.5985 23.8574 27.421L29.9288 31.205L29.9238 31.1789L32.3105 31.3304C33.6439 31.4137 34.9302 31.8717 36.0314 32.6552C37.1325 33.4387 38.007 34.5182 38.5609 35.7777L40 39.9352Z" fill="#84D170"/>
<g id="head3">
<path id="Vector" d="M17.7617 23.7839C22.8021 23.7839 26.8881 19.5501 26.8881 14.3274C26.8881 9.10468 22.8021 4.87085 17.7617 4.87085C12.7214 4.87085 8.63533 9.10468 8.63533 14.3274C8.63533 19.5501 12.7214 23.7839 17.7617 23.7839Z" fill="#FFB6B6"/>
<path id="Vector_2" d="M27.387 8.46261C26.6158 5.60241 24.8636 3.13222 22.4594 1.51571C20.5433 0.245855 18.1524 -0.402434 15.9817 0.269111C13.8111 0.940656 12.0139 3.14797 12.156 5.53286C11.3725 5.25659 10.4817 5.62415 9.90814 6.25214C9.33459 6.88015 9.02618 7.72491 8.8053 8.56581C8.10873 11.2397 8.15489 14.0631 8.93844 16.711L8.89534 17.0911C9.95435 16.9095 10.7576 15.968 11.2571 14.9649C11.7566 13.9618 12.0441 12.8489 12.5855 11.8703C13.1268 10.8917 14.0259 10.0188 15.0983 9.98823L15.0038 11.6869C15.9265 11.1943 16.8492 10.7017 17.7719 10.2091C17.5525 10.7531 17.333 11.2971 17.1135 11.8412C17.9193 11.4922 18.7251 11.1432 19.531 10.7942C19.4409 11.3173 19.3508 11.8404 19.2607 12.3635C20.0599 10.4787 22.5314 9.65074 24.2126 10.7045C25.189 11.3166 25.8296 12.4073 26.1665 13.5527C26.5035 14.6981 26.5701 15.9097 26.6344 17.1073C27.8796 14.413 28.1468 11.3443 27.387 8.46261V8.46261Z" fill="#2F2E41"/>
</g>
</g>
</svg>
