<svg width="40" height="50" viewBox="0 0 40 50" fill="none" xmlns="http://www.w3.org/2000/svg">
<g id="osoba1">
<path id="body1" d="M40 41.1C35.0468 46.2641 28.0759 49.4363 20.5921 49.9318C13.1084 50.4274 5.71214 48.2066 0 43.7488L2.45227 37.4791C3.00644 36.3656 3.88098 35.4112 4.98209 34.7184C6.08321 34.0256 7.36937 33.6205 8.70267 33.5465L10.2627 33.4587L13.9827 30.519C13.9827 30.519 24.0061 30.1911 23.8574 30.0341L29.9288 33.3802L29.9238 33.3571L32.3105 33.491C33.6439 33.5647 34.9302 33.9697 36.0314 34.6626C37.1325 35.3554 38.007 36.3099 38.5609 37.4237L40 41.1Z" fill="#53d188"/>
<g id="head1">
<path id="Vector" d="M18.8844 24.9792C25.181 24.9792 30.2854 20.3022 30.2854 14.5329C30.2854 8.76364 25.181 4.08672 18.8844 4.08672C12.5879 4.08672 7.48347 8.76364 7.48347 14.5329C7.48347 20.3022 12.5879 24.9792 18.8844 24.9792Z" fill="#2F2E41"/>
<path id="Vector_2" d="M18.8891 26.3514C24.5141 26.3514 29.0741 22.1733 29.0741 17.0193C29.0741 11.8654 24.5141 7.68729 18.8891 7.68729C13.2641 7.68729 8.7041 11.8654 8.7041 17.0193C8.7041 22.1733 13.2641 26.3514 18.8891 26.3514Z" fill="#FFB8B8"/>
<path id="Vector_3" d="M29.8733 10.8145C29.9448 10.1178 29.9775 9.41817 29.9714 8.71838C30.013 7.3344 29.7363 5.95788 29.1592 4.67833C28.4494 3.26158 27.1838 2.14136 25.614 1.54028C24.0581 0.965252 22.3191 0.966641 20.7643 1.54417C19.3604 0.731515 17.8007 0.0872798 16.158 0.00747408C14.5154 -0.0723155 12.7786 0.486061 11.7664 1.7152C11.5403 2.03965 11.2836 2.34526 10.9991 2.62851C10.1854 3.31894 8.94878 3.21935 7.86723 3.07818C8.35233 3.45913 8.83755 3.84007 9.32291 4.22101C8.7357 4.36158 8.14844 4.50214 7.56113 4.64269C8.24643 5.0235 8.93168 5.40431 9.61686 5.78514C7.62749 6.87921 6.72328 9.26716 6.96214 11.4359C7.1881 13.4892 8.27001 15.3668 9.56336 17.0357C10.0793 16.0381 9.96812 14.8444 9.9596 13.7209C9.95488 13.3565 9.97914 12.9922 10.0322 12.631C14.4031 13.591 18.9702 14.2071 23.6017 12.6824L24.5312 10.5981C24.6616 10.6104 24.7921 10.622 24.9225 10.6346L25.4609 12.6843C26.6818 13.1416 27.9052 13.5412 29.129 13.1213C29.1886 13.4379 29.2245 13.761 29.252 14.0715C29.357 13.7 29.4482 13.3258 29.5303 12.9501C29.6921 12.8706 29.847 12.78 29.9937 12.6789C30.0233 12.0553 29.9829 11.4306 29.8733 10.8145V10.8145Z" fill="#2F2E41"/>
</g>
</g>
</svg>
