<svg width="41" height="50" viewBox="0 0 41 50" fill="none" xmlns="http://www.w3.org/2000/svg">
<g id="osoba2">
<g id="head2">
<path id="Vector" d="M20.0969 23.3572C25.2458 23.3572 29.4198 19.0482 29.4198 13.7328C29.4198 8.41735 25.2458 4.10834 20.0969 4.10834C14.9481 4.10834 10.7741 8.41735 10.7741 13.7328C10.7741 19.0482 14.9481 23.3572 20.0969 23.3572Z" fill="#FFB8B8"/>
<path id="bf427902-b9bf-4946-b5d7-5c1c7e04535e" d="M28.3054 7.37471C28.3054 7.37471 30.7327 2.58425 25.3925 2.14875C25.3925 2.14875 20.8399 -2.11465 16.1996 1.36933C16.1996 1.36933 13.6685 1.36933 12.2844 4.32623C12.2844 4.32623 10.2937 3.54682 9.8562 5.63272C9.8562 5.63272 8.39954 9.9877 9.8562 13.9072C11.3129 17.8267 11.7967 18.2622 11.7967 18.2622C11.7967 18.2622 10.7747 13.3983 16.6009 12.9628C22.4271 12.5273 27.7721 8.75936 28.2576 13.5498C28.7432 18.3403 29.2769 16.1762 29.2769 16.1762C29.2769 16.1762 33.8886 9.33446 28.3054 7.37471Z" fill="#2F2E41"/>
</g>
<path id="body2" d="M40.275 39.9724C35.3218 45.7907 28.3509 49.3648 20.8671 49.9232C13.3834 50.4815 5.98713 47.9793 0.274994 42.9567L2.72726 35.8927C3.28144 34.638 4.15597 33.5628 5.25709 32.7822C6.3582 32.0016 7.64438 31.5451 8.97767 31.4617L10.5377 31.3629L14.2577 28.0507C14.2577 28.0507 24.281 27.6812 24.1323 27.5043L30.2038 31.2744L30.1987 31.2484L32.5855 31.3993C33.9189 31.4823 35.2052 31.9386 36.3064 32.7193C37.4075 33.4999 38.282 34.5754 38.8359 35.8303L40.275 39.9724Z" fill="#84D170"/>
</g>
</svg>
