<svg width="1004" height="239" viewBox="0 0 1004 239" fill="none" xmlns="http://www.w3.org/2000/svg">
<rect width="1004" height="239" fill="white"/>
<g clip-path="url(#clip0)">
<path d="M984.069 34.7987C983.578 32.6019 981.761 30.95 979.527 30.6706C957.52 27.92 937.191 28.5677 919.103 32.5955C896.07 37.7239 876.325 48.3893 860.413 64.2987C835.599 89.138 835.599 129.554 860.416 154.396C862.81 156.789 865.363 158.964 868.049 160.919V205.668C868.049 208.613 870.436 211 873.381 211C876.325 211 878.713 208.613 878.713 205.668V167.191C886.99 171.022 896.075 173.043 905.474 173.043C922.503 173.043 938.498 166.419 950.511 154.395C969.292 135.616 965.402 109.74 964.123 95.2186C962.168 73.0489 960.48 53.9027 981.717 40.4677C983.618 39.2641 984.561 36.9959 984.069 34.7987ZM867.955 71.8378C886.735 53.0616 911.139 42.4619 940.784 40.1407C928.07 46.3354 915.782 55.3696 905.054 66.6938C884.02 88.8973 871.322 117.219 868.604 147.488C847.354 126.936 847.026 92.788 867.955 71.8378ZM953.499 96.155C955.173 115.14 956.753 133.072 942.968 146.856C932.968 156.866 919.652 162.379 905.473 162.379C895.948 162.379 886.811 159.887 878.803 155.22C879.897 124.804 891.864 96.1233 912.796 74.0275C922.413 63.8757 933.679 55.4919 945.375 49.7828C951.077 46.9991 956.83 44.8741 962.478 43.4458C958.286 48.8131 955.446 54.952 953.897 61.9572C951.457 72.9924 952.495 84.7676 953.499 96.155Z" fill="#53D188"/>
</g>
<path d="M94.08 129.92C94.08 132.48 93.92 135.147 93.6 137.92H31.68C32.1067 143.467 33.8667 147.733 36.96 150.72C40.16 153.6 44.0533 155.04 48.64 155.04C55.4667 155.04 60.2133 152.16 62.88 146.4H92C90.5067 152.267 87.7867 157.547 83.84 162.24C80 166.933 75.1467 170.613 69.28 173.28C63.4133 175.947 56.8533 177.28 49.6 177.28C40.8533 177.28 33.0667 175.413 26.24 171.68C19.4133 167.947 14.08 162.613 10.24 155.68C6.4 148.747 4.48 140.64 4.48 131.36C4.48 122.08 6.34667 113.973 10.08 107.04C13.92 100.107 19.2533 94.7733 26.08 91.04C32.9067 87.3067 40.7467 85.44 49.6 85.44C58.24 85.44 65.92 87.2533 72.64 90.88C79.36 94.5067 84.5867 99.68 88.32 106.4C92.16 113.12 94.08 120.96 94.08 129.92ZM66.08 122.72C66.08 118.027 64.48 114.293 61.28 111.52C58.08 108.747 54.08 107.36 49.28 107.36C44.6933 107.36 40.8 108.693 37.6 111.36C34.5067 114.027 32.5867 117.813 31.84 122.72H66.08ZM103.074 131.36C103.074 122.08 104.94 113.973 108.674 107.04C112.514 100.107 117.794 94.7733 124.514 91.04C131.34 87.3067 139.127 85.44 147.874 85.44C159.074 85.44 168.407 88.3733 175.874 94.24C183.447 100.107 188.407 108.373 190.754 119.04H161.634C159.18 112.213 154.434 108.8 147.394 108.8C142.38 108.8 138.38 110.773 135.394 114.72C132.407 118.56 130.914 124.107 130.914 131.36C130.914 138.613 132.407 144.213 135.394 148.16C138.38 152 142.38 153.92 147.394 153.92C154.434 153.92 159.18 150.507 161.634 143.68H190.754C188.407 154.133 183.447 162.347 175.874 168.32C168.3 174.293 158.967 177.28 147.874 177.28C139.127 177.28 131.34 175.413 124.514 171.68C117.794 167.947 112.514 162.613 108.674 155.68C104.94 148.747 103.074 140.64 103.074 131.36ZM246.029 177.28C237.282 177.28 229.389 175.413 222.349 171.68C215.415 167.947 209.922 162.613 205.869 155.68C201.922 148.747 199.949 140.64 199.949 131.36C199.949 122.187 201.975 114.133 206.029 107.2C210.082 100.16 215.629 94.7733 222.669 91.04C229.709 87.3067 237.602 85.44 246.349 85.44C255.095 85.44 262.989 87.3067 270.029 91.04C277.069 94.7733 282.615 100.16 286.669 107.2C290.722 114.133 292.749 122.187 292.749 131.36C292.749 140.533 290.669 148.64 286.509 155.68C282.455 162.613 276.855 167.947 269.709 171.68C262.669 175.413 254.775 177.28 246.029 177.28ZM246.029 153.6C251.255 153.6 255.682 151.68 259.309 147.84C263.042 144 264.909 138.507 264.909 131.36C264.909 124.213 263.095 118.72 259.469 114.88C255.949 111.04 251.575 109.12 246.349 109.12C241.015 109.12 236.589 111.04 233.069 114.88C229.549 118.613 227.789 124.107 227.789 131.36C227.789 138.507 229.495 144 232.909 147.84C236.429 151.68 240.802 153.6 246.029 153.6ZM376.064 108.48V131.2H305.664V108.48H376.064ZM513.996 85.76C525.09 85.76 533.89 89.12 540.396 95.84C547.01 102.56 550.316 111.893 550.316 123.84V176H523.116V127.52C523.116 121.76 521.57 117.333 518.476 114.24C515.49 111.04 511.33 109.44 505.996 109.44C500.663 109.44 496.45 111.04 493.356 114.24C490.37 117.333 488.876 121.76 488.876 127.52V176H461.676V127.52C461.676 121.76 460.13 117.333 457.036 114.24C454.05 111.04 449.89 109.44 444.556 109.44C439.223 109.44 435.01 111.04 431.916 114.24C428.93 117.333 427.436 121.76 427.436 127.52V176H400.076V86.72H427.436V97.92C430.21 94.1867 433.836 91.2533 438.316 89.12C442.796 86.88 447.863 85.76 453.516 85.76C460.236 85.76 466.21 87.2 471.436 90.08C476.77 92.96 480.93 97.0667 483.916 102.4C487.01 97.4933 491.223 93.4933 496.556 90.4C501.89 87.3067 507.703 85.76 513.996 85.76ZM653.611 129.92C653.611 132.48 653.451 135.147 653.131 137.92H591.211C591.638 143.467 593.398 147.733 596.491 150.72C599.691 153.6 603.585 155.04 608.171 155.04C614.998 155.04 619.745 152.16 622.411 146.4H651.531C650.038 152.267 647.318 157.547 643.371 162.24C639.531 166.933 634.678 170.613 628.811 173.28C622.945 175.947 616.385 177.28 609.131 177.28C600.385 177.28 592.598 175.413 585.771 171.68C578.945 167.947 573.611 162.613 569.771 155.68C565.931 148.747 564.011 140.64 564.011 131.36C564.011 122.08 565.878 113.973 569.611 107.04C573.451 100.107 578.785 94.7733 585.611 91.04C592.438 87.3067 600.278 85.44 609.131 85.44C617.771 85.44 625.451 87.2533 632.171 90.88C638.891 94.5067 644.118 99.68 647.851 106.4C651.691 113.12 653.611 120.96 653.611 129.92ZM625.611 122.72C625.611 118.027 624.011 114.293 620.811 111.52C617.611 108.747 613.611 107.36 608.811 107.36C604.225 107.36 600.331 108.693 597.131 111.36C594.038 114.027 592.118 117.813 591.371 122.72H625.611ZM752.205 129.92C752.205 132.48 752.045 135.147 751.725 137.92H689.805C690.232 143.467 691.992 147.733 695.085 150.72C698.285 153.6 702.178 155.04 706.765 155.04C713.592 155.04 718.338 152.16 721.005 146.4H750.125C748.632 152.267 745.912 157.547 741.965 162.24C738.125 166.933 733.272 170.613 727.405 173.28C721.538 175.947 714.978 177.28 707.725 177.28C698.978 177.28 691.192 175.413 684.365 171.68C677.538 167.947 672.205 162.613 668.365 155.68C664.525 148.747 662.605 140.64 662.605 131.36C662.605 122.08 664.472 113.973 668.205 107.04C672.045 100.107 677.378 94.7733 684.205 91.04C691.032 87.3067 698.872 85.44 707.725 85.44C716.365 85.44 724.045 87.2533 730.765 90.88C737.485 94.5067 742.712 99.68 746.445 106.4C750.285 113.12 752.205 120.96 752.205 129.92ZM724.205 122.72C724.205 118.027 722.605 114.293 719.405 111.52C716.205 108.747 712.205 107.36 707.405 107.36C702.818 107.36 698.925 108.693 695.725 111.36C692.632 114.027 690.712 117.813 689.965 122.72H724.205ZM816.399 152.8V176H802.479C792.559 176 784.825 173.6 779.279 168.8C773.732 163.893 770.959 155.947 770.959 144.96V109.44H760.079V86.72H770.959V64.96H798.319V86.72H816.239V109.44H798.319V145.28C798.319 147.947 798.959 149.867 800.239 151.04C801.519 152.213 803.652 152.8 806.639 152.8H816.399Z" fill="#DADADA"/>
<defs>
<clipPath id="clip0">
<rect width="182" height="182" fill="white" transform="translate(822 29)"/>
</clipPath>
</defs>
</svg>
